<?xml version="1.0" encoding="utf-8" standalone="yes"?><svg xmlns="http://www.w3.org/2000/svg" xmlns:xlink="http://www.w3.org/1999/xlink" version="1.1" width="816" height="1056"><!--Generated by Aspose.Words for .NET 18.5--><defs><clipPath id="clip1"><path d="M-1,-1 L332,-1 L332,606.114013672 L-1,606.114013672 Z" clip-rule="evenodd"></path></clipPath><clipPath id="clip2"><path d="M-1,-1 L212,-1 L212,606.114013672 L-1,606.114013672 Z" clip-rule="evenodd"></path></clipPath><style type="text/css">@import url('https://fonts.googleapis.com/css?family=Fira+Sans:300,500,700');svg{background:white}</style></defs><g transform="scale(1.33333)"><g><g transform="matrix(1,0,0,1,18,0)"><path d="M0,0 L576,0 L576,35 L0,35 Z" fill="#e2e6e8" fill-rule="evenodd"></path><g transform="matrix(1,0,0,1,0,35)"><text><tspan x="0" y="43.841999054" font-family="Palatino Linotype" font-weight="bold" font-style="normal" font-size="37" fill="#3c5769">JESSICA CLAIRE</tspan></text></g></g><g transform="matrix(1,0,0,1,18,89.916999817)"><text><tspan x="0" y="4.050000191" font-family="Palatino Linotype" font-weight="normal" font-style="normal" font-size="1" fill="#000000"> </tspan></text><path d="M-1.450000048,4.848999977 L577.450012207,4.848999977 " stroke-width="1" stroke-miterlimit="10" stroke="#8da6b6" fill="none" fill-rule="evenodd"></path><g transform="matrix(1,0,0,1,0,5.348999977)"><g transform="matrix(1,0,0,1,0,0)" clip-path="url(#clip1)"><g transform="matrix(1,0,0,1,0.25,0.25)"><text><tspan x="0" y="22.006999969" font-family="Palatino Linotype" font-weight="normal" font-style="normal" font-size="10" fill="#000000"> </tspan></text></g><g transform="matrix(1,0,0,1,0.25,25.25)"><text><tspan x="0" y="12.597000122" font-family="Palatino Linotype" font-weight="bold" font-style="normal" font-size="12" fill="#3c5769">PROFESSIONAL SUMMARY </tspan></text><g transform="matrix(1,0,0,1,168.345001221,2.097000122)"><path d="M0,0 L152.71875,0 L152.71875,10.5 L0,10.5 Z" fill="#e2e6e8" fill-rule="evenodd"></path></g></g><g transform="matrix(1,0,0,1,0.25,45.438999176)"><text><tspan x="0" y="12.708000183" font-family="Palatino Linotype" font-weight="normal" font-style="normal" font-size="11" fill="#000000">Highly motivated Sales Associate with extensive customer service </tspan><tspan x="0" y="28.708000183" font-family="Palatino Linotype" font-weight="normal" font-style="normal" font-size="11" fill="#000000">and sales experience. Outgoing sales professional with track record </tspan><tspan x="0" y="44.708000183" font-family="Palatino Linotype" font-weight="normal" font-style="normal" font-size="11" fill="#000000">of driving increased sales, improving buying experience and </tspan><tspan x="0" y="60.708000183" font-family="Palatino Linotype" font-weight="normal" font-style="normal" font-size="11" fill="#000000">elevating company profile with target market.</tspan></text></g><g transform="matrix(1,0,0,1,0.25,109.439002991)"><text><tspan x="0" y="6.050000191" font-family="Palatino Linotype" font-weight="normal" font-style="normal" font-size="1" fill="#000000"> </tspan></text></g><path d="M-1.200000048,116.288002014 L332.199981689,116.288002014 " stroke-width="1" stroke-miterlimit="10" stroke="#8da6b6" fill="none" fill-rule="evenodd"></path><g transform="matrix(1,0,0,1,0.25,116.788002014)"><text><tspan x="0" y="22.006999969" font-family="Palatino Linotype" font-weight="normal" font-style="normal" font-size="10" fill="#000000"> </tspan></text></g><g transform="matrix(1,0,0,1,0.25,141.787994385)"><text><tspan x="0" y="12.597000122" font-family="Palatino Linotype" font-weight="bold" font-style="normal" font-size="12" fill="#3c5769">WORK HISTORY </tspan></text><g transform="matrix(1,0,0,1,102.362998962,2.097000122)"><path d="M0,0 L220.400390625,0 L220.400390625,10.5 L0,10.5 Z" fill="#e2e6e8" fill-rule="evenodd"></path></g></g><g transform="matrix(1,0,0,1,0.25,161.977005005)"><text><tspan x="0" y="12.708000183" font-family="Palatino Linotype" font-weight="bold" font-style="normal" font-size="11" fill="#000000">Senior Sales Associate</tspan><tspan x="112.412002563" y="12.708000183" font-family="Palatino Linotype" font-weight="normal" font-style="normal" font-size="11" fill="#000000">, </tspan><tspan x="117.912002563" y="12.708000183" font-family="Palatino Linotype" font-weight="bold" font-style="normal" font-size="11" fill="#000000">03/2015 to Current</tspan></text></g><g transform="matrix(1,0,0,1,0.25,177.977005005)"><text><tspan x="0" y="12.708000183" font-family="Palatino Linotype" font-weight="bold" font-style="normal" font-size="11" fill="#000000">Bed Bath &amp; Beyond, Inc. - San Francisco, CA </tspan></text></g><g transform="matrix(1,0,0,1,0.200000003,193.977005005)"><text><tspan x="-0.5" y="14.958000183" font-family="Symbol" font-weight="normal" font-style="normal" font-size="8.25" fill="#000000">●</tspan><tspan x="10.050000191" y="15.708000183" font-family="Palatino Linotype" font-weight="normal" font-style="normal" font-size="11" fill="#000000">Applied security and loss prevention training toward recognizing </tspan><tspan x="10.050000191" y="31.708000183" font-family="Palatino Linotype" font-weight="normal" font-style="normal" font-size="11" fill="#000000">risks and reducing store theft</tspan></text></g><g transform="matrix(1,0,0,1,0.200000003,228.977005005)"><text><tspan x="-0.5" y="11.958000183" font-family="Symbol" font-weight="normal" font-style="normal" font-size="8.25" fill="#000000">●</tspan><tspan x="10.050000191" y="12.708000183" font-family="Palatino Linotype" font-weight="normal" font-style="normal" font-size="11" fill="#000000">Trained and developed sales team associates in products, selling </tspan><tspan x="10.050000191" y="28.708000183" font-family="Palatino Linotype" font-weight="normal" font-style="normal" font-size="11" fill="#000000">techniques and procedures</tspan></text></g><g transform="matrix(1,0,0,1,0.200000003,260.976989746)"><text><tspan x="-0.5" y="11.958000183" font-family="Symbol" font-weight="normal" font-style="normal" font-size="8.25" fill="#000000">●</tspan><tspan x="10.050000191" y="12.708000183" font-family="Palatino Linotype" font-weight="normal" font-style="normal" font-size="11" fill="#000000">Maintained organized, presentable merchandise to drive </tspan><tspan x="10.050000191" y="28.708000183" font-family="Palatino Linotype" font-weight="normal" font-style="normal" font-size="11" fill="#000000">continuous sales</tspan></text></g><g transform="matrix(1,0,0,1,0.200000003,292.976989746)"><text><tspan x="-0.5" y="11.958000183" font-family="Symbol" font-weight="normal" font-style="normal" font-size="8.25" fill="#000000">●</tspan><tspan x="10.050000191" y="12.708000183" font-family="Palatino Linotype" font-weight="normal" font-style="normal" font-size="11" fill="#000000">Implemented up-selling strategies for recommending accessories </tspan><tspan x="10.050000191" y="28.708000183" font-family="Palatino Linotype" font-weight="normal" font-style="normal" font-size="11" fill="#000000">and complementary purchases</tspan></text></g><g transform="matrix(1,0,0,1,0.25,324.976989746)"><text><tspan x="0" y="37.708000183" font-family="Palatino Linotype" font-weight="bold" font-style="normal" font-size="11" fill="#000000">Sales Associate</tspan><tspan x="76.662002563" y="37.708000183" font-family="Palatino Linotype" font-weight="normal" font-style="normal" font-size="11" fill="#000000">, </tspan><tspan x="82.162002563" y="37.708000183" font-family="Palatino Linotype" font-weight="bold" font-style="normal" font-size="11" fill="#000000">06/2013 to 03/2015</tspan></text></g><g transform="matrix(1,0,0,1,0.25,365.976989746)"><text><tspan x="0" y="12.708000183" font-family="Palatino Linotype" font-weight="bold" font-style="normal" font-size="11" fill="#000000">Target - San Francisco, CA </tspan></text></g><g transform="matrix(1,0,0,1,0.200000003,381.976989746)"><text><tspan x="-0.5" y="14.958000183" font-family="Symbol" font-weight="normal" font-style="normal" font-size="8.25" fill="#000000">●</tspan><tspan x="10.050000191" y="15.708000183" font-family="Palatino Linotype" font-weight="normal" font-style="normal" font-size="11" fill="#000000">Maintained organized, presentable merchandise to drive </tspan><tspan x="10.050000191" y="31.708000183" font-family="Palatino Linotype" font-weight="normal" font-style="normal" font-size="11" fill="#000000">continuous sales</tspan></text></g><g transform="matrix(1,0,0,1,0.200000003,416.976989746)"><text><tspan x="-0.5" y="11.958000183" font-family="Symbol" font-weight="normal" font-style="normal" font-size="8.25" fill="#000000">●</tspan><tspan x="10.050000191" y="12.708000183" font-family="Palatino Linotype" font-weight="normal" font-style="normal" font-size="11" fill="#000000">Organized racks and shelves to maintain store visual appeal, </tspan><tspan x="10.050000191" y="28.708000183" font-family="Palatino Linotype" font-weight="normal" font-style="normal" font-size="11" fill="#000000">engage customers and promote merchandise</tspan></text></g><g transform="matrix(1,0,0,1,0.200000003,448.976989746)"><text><tspan x="-0.5" y="11.958000183" font-family="Symbol" font-weight="normal" font-style="normal" font-size="8.25" fill="#000000">●</tspan><tspan x="10.050000191" y="12.708000183" font-family="Palatino Linotype" font-weight="normal" font-style="normal" font-size="11" fill="#000000">Evaluated inventory and delivery needs, optimizing strategies to </tspan><tspan x="10.050000191" y="28.708000183" font-family="Palatino Linotype" font-weight="normal" font-style="normal" font-size="11" fill="#000000">meet customer demands</tspan></text></g><g transform="matrix(1,0,0,1,0.200000003,480.976989746)"><text><tspan x="-0.5" y="11.958000183" font-family="Symbol" font-weight="normal" font-style="normal" font-size="8.25" fill="#000000">●</tspan><tspan x="10.050000191" y="12.708000183" font-family="Palatino Linotype" font-weight="normal" font-style="normal" font-size="11" fill="#000000">Analyzed and processed returns, assisting customers with </tspan><tspan x="10.050000191" y="28.708000183" font-family="Palatino Linotype" font-weight="normal" font-style="normal" font-size="11" fill="#000000">finding alternative merchandise to meet needs</tspan></text></g><g transform="matrix(1,0,0,1,0.25,512.976989746)"><text><tspan x="0" y="6.050000191" font-family="Palatino Linotype" font-weight="normal" font-style="normal" font-size="1" fill="#000000"> </tspan></text></g><path d="M-1.200000048,519.82598877 L332.199981689,519.82598877 " stroke-width="1" stroke-miterlimit="10" stroke="#8da6b6" fill="none" fill-rule="evenodd"></path><g transform="matrix(1,0,0,1,0.25,520.32598877)"><text><tspan x="0" y="22.006999969" font-family="Palatino Linotype" font-weight="normal" font-style="normal" font-size="10" fill="#000000"> </tspan></text></g><g transform="matrix(1,0,0,1,0.25,545.32598877)"><text><tspan x="0" y="12.597000122" font-family="Palatino Linotype" font-weight="bold" font-style="normal" font-size="12" fill="#3c5769">EDUCATION </tspan></text><g transform="matrix(1,0,0,1,80.244003296,2.097000122)"><path d="M0,0 L241.857421875,0 L241.857421875,10.5 L0,10.5 Z" fill="#e2e6e8" fill-rule="evenodd"></path></g></g><g transform="matrix(1,0,0,1,0.25,565.515014648)"><text><tspan x="0" y="12.708000183" font-family="Palatino Linotype" font-weight="bold" font-style="normal" font-size="11" fill="#000000">Bachelor of Arts</tspan><tspan x="81.209999084" y="12.708000183" font-family="Palatino Linotype" font-weight="normal" font-style="normal" font-size="11" fill="#000000">, </tspan><tspan x="86.709999084" y="12.708000183" font-family="Palatino Linotype" font-weight="bold" font-style="normal" font-size="11" fill="#000000">Business Administration</tspan><tspan x="211.567001343" y="12.708000183" font-family="Palatino Linotype" font-weight="normal" font-style="normal" font-size="11" fill="#000000">, </tspan><tspan x="217.067001343" y="12.708000183" font-family="Palatino Linotype" font-weight="bold" font-style="normal" font-size="11" fill="#000000">2013</tspan></text></g><g transform="matrix(1,0,0,1,0.25,581.515014648)"><text><tspan x="0" y="12.708000183" font-family="Palatino Linotype" font-weight="bold" font-style="normal" font-size="11" fill="#000000">San Francisco State University</tspan><tspan x="152.45300293" y="12.708000183" font-family="Palatino Linotype" font-weight="normal" font-style="normal" font-size="11" fill="#000000"> - San Francisco, CA </tspan></text></g><g transform="matrix(1,0,0,1,0.25,597.515014648)"><text><tspan x="0" y="6.050000191" font-family="Palatino Linotype" font-weight="normal" font-style="normal" font-size="1" fill="#000000"> </tspan></text></g><path d="M-1.200000048,604.364013672 L332.199981689,604.364013672 " stroke-width="1" stroke-miterlimit="10" stroke="#8da6b6" fill="none" fill-rule="evenodd"></path></g><g transform="matrix(1,0,0,1,365,0)" clip-path="url(#clip2)"><g transform="matrix(1,0,0,1,0.25,0.25)"><text><tspan x="0" y="22.006999969" font-family="Palatino Linotype" font-weight="normal" font-style="normal" font-size="10" fill="#000000"> </tspan></text></g><g transform="matrix(1,0,0,1,0.25,25.25)"><text><tspan x="0" y="12.597000122" font-family="Palatino Linotype" font-weight="bold" font-style="normal" font-size="12" fill="#3c5769">CONTACT </tspan></text><g transform="matrix(1,0,0,1,65.666000366,2.097000122)"><path d="M0,0 L136.78125,0 L136.78125,10.5 L0,10.5 Z" fill="#e2e6e8" fill-rule="evenodd"></path></g></g><g transform="matrix(1,0,0,1,0.25,45.438999176)"><text><tspan x="0" y="12.708000183" font-family="Palatino Linotype" font-weight="bold" font-style="normal" font-size="11" fill="#000000">Address</tspan><tspan x="41.540000916" y="12.708000183" font-family="Palatino Linotype" font-weight="normal" font-style="normal" font-size="11" fill="#000000"> : San Francisco, CA 94105 </tspan></text></g><g transform="matrix(1,0,0,1,0.25,61.438999176)"><text><tspan x="0" y="12.708000183" font-family="Palatino Linotype" font-weight="bold" font-style="normal" font-size="11" fill="#000000">Phone</tspan><tspan x="31.770000458" y="12.708000183" font-family="Palatino Linotype" font-weight="normal" font-style="normal" font-size="11" fill="#000000"> : (555) 432-1000</tspan></text></g><g transform="matrix(1,0,0,1,0.25,77.439002991)"><text><tspan x="0" y="12.708000183" font-family="Palatino Linotype" font-weight="bold" font-style="normal" font-size="11" fill="#000000">Email</tspan><tspan x="29.271999359" y="12.708000183" font-family="Palatino Linotype" font-weight="normal" font-style="normal" font-size="11" fill="#000000"> : resumesample@example.com</tspan></text></g><g transform="matrix(1,0,0,1,0.25,93.439002991)"><text><tspan x="0" y="6.050000191" font-family="Palatino Linotype" font-weight="normal" font-style="normal" font-size="1" fill="#000000"> </tspan></text></g><path d="M-1.200000048,100.288002014 L212.199996948,100.288002014 " stroke-width="1" stroke-miterlimit="10" stroke="#8da6b6" fill="none" fill-rule="evenodd"></path><g transform="matrix(1,0,0,1,0.25,100.788002014)"><text><tspan x="0" y="22.006999969" font-family="Palatino Linotype" font-weight="normal" font-style="normal" font-size="10" fill="#000000"> </tspan></text></g><g transform="matrix(1,0,0,1,0.25,125.788002014)"><text><tspan x="0" y="12.597000122" font-family="Palatino Linotype" font-weight="bold" font-style="normal" font-size="12" fill="#3c5769">SKILLS </tspan></text><g transform="matrix(1,0,0,1,46.106998444,2.097000122)"><path d="M0,0 L157.306640625,0 L157.306640625,10.5 L0,10.5 Z" fill="#e2e6e8" fill-rule="evenodd"></path></g></g><g transform="matrix(1,0,0,1,0.200000003,145.977005005)"><text><tspan x="-0.5" y="11.958000183" font-family="Symbol" font-weight="normal" font-style="normal" font-size="8.25" fill="#000000">●</tspan><tspan x="10.050000191" y="12.708000183" font-family="Palatino Linotype" font-weight="normal" font-style="normal" font-size="11" fill="#000000">Guest services</tspan></text></g><g transform="matrix(1,0,0,1,0.200000003,161.977005005)"><text><tspan x="-0.5" y="11.958000183" font-family="Symbol" font-weight="normal" font-style="normal" font-size="8.25" fill="#000000">●</tspan><tspan x="10.050000191" y="12.708000183" font-family="Palatino Linotype" font-weight="normal" font-style="normal" font-size="11" fill="#000000">Inventory control procedures</tspan></text></g><g transform="matrix(1,0,0,1,0.200000003,177.977005005)"><text><tspan x="-0.5" y="11.958000183" font-family="Symbol" font-weight="normal" font-style="normal" font-size="8.25" fill="#000000">●</tspan><tspan x="10.050000191" y="12.708000183" font-family="Palatino Linotype" font-weight="normal" font-style="normal" font-size="11" fill="#000000">Merchandising expertise</tspan></text></g><g transform="matrix(1,0,0,1,0.200000003,193.977005005)"><text><tspan x="-0.5" y="11.958000183" font-family="Symbol" font-weight="normal" font-style="normal" font-size="8.25" fill="#000000">●</tspan><tspan x="10.050000191" y="12.708000183" font-family="Palatino Linotype" font-weight="normal" font-style="normal" font-size="11" fill="#000000">Loss prevention</tspan></text></g><g transform="matrix(1,0,0,1,0.200000003,209.977005005)"><text><tspan x="-0.5" y="11.958000183" font-family="Symbol" font-weight="normal" font-style="normal" font-size="8.25" fill="#000000">●</tspan><tspan x="10.050000191" y="12.708000183" font-family="Palatino Linotype" font-weight="normal" font-style="normal" font-size="11" fill="#000000">Cash register operations</tspan></text></g><g transform="matrix(1,0,0,1,0.200000003,225.977005005)"><text><tspan x="-0.5" y="11.958000183" font-family="Symbol" font-weight="normal" font-style="normal" font-size="8.25" fill="#000000">●</tspan><tspan x="10.050000191" y="12.708000183" font-family="Palatino Linotype" font-weight="normal" font-style="normal" font-size="11" fill="#000000">Product promotions</tspan></text></g><g transform="matrix(1,0,0,1,0.25,241.977005005)"><text><tspan x="0" y="6.050000191" font-family="Palatino Linotype" font-weight="normal" font-style="normal" font-size="1" fill="#000000"> </tspan></text></g><path d="M-1.200000048,248.826004028 L212.199996948,248.826004028 " stroke-width="1" stroke-miterlimit="10" stroke="#8da6b6" fill="none" fill-rule="evenodd"></path></g></g></g></g></g></svg>