<?xml version="1.0" encoding="utf-8" standalone="yes"?><svg xmlns="http://www.w3.org/2000/svg" xmlns:xlink="http://www.w3.org/1999/xlink" version="1.1" width="816" height="1056"><!--Generated by Aspose.Words for .NET 18.5--><defs><clipPath id="clip1"><path d="M-1,-1 L31,-1 L31,791 L-1,791 Z" clip-rule="evenodd"></path></clipPath><clipPath id="clip2"><path d="M-1,-1 L173,-1 L173,791 L-1,791 Z" clip-rule="evenodd"></path></clipPath><clipPath id="clip3"><path d="M-1,-1 L321,-1 L321,791 L-1,791 Z" clip-rule="evenodd"></path></clipPath><clipPath id="clip4"><path d="M-6.125,-0.375 L617.375,-0.375 L617.375,127.125 L-6.125,127.125 Z" clip-rule="evenodd"></path></clipPath><clipPath id="clip5"><path d="M0,0 L611.25,0 L611.25,109.5 L0,109.5 Z" clip-rule="evenodd"></path></clipPath><clipPath id="clip6"><path d="M0,0 L611.25,0 L611.25,6 L0,6 Z" clip-rule="evenodd"></path></clipPath><clipPath id="clip7"><path d="M0,0 L611.25,0 L611.25,10 L0,10 Z" clip-rule="evenodd"></path></clipPath><style type="text/css">@import url('https://fonts.googleapis.com/css?family=PT+Sans:400,700');@import url('https://fonts.googleapis.com/css?family=Oswald:300,400,700');svg{background:white}</style></defs><g transform="scale(1.33333)"><g><path d="M0,0 L30,0 L30,790 L0,790 Z" fill="#e2e6e8" fill-rule="evenodd"></path><g transform="matrix(1,0,0,1,0,0)" clip-path="url(#clip1)"><g transform="matrix(1,0,0,1,0,30)"><text><tspan x="0" y="720.141052246" font-family="Times New Roman" font-weight="normal" font-style="normal" font-size="1" fill="#ffffff">.</tspan></text></g></g><path d="M30,0 L202,0 L202,790 L30,790 Z" fill="#e2e6e8" fill-rule="evenodd"></path><g transform="matrix(1,0,0,1,30,0)" clip-path="url(#clip2)"><g transform="matrix(1,0,0,1,0,157.5)"><text><tspan x="0" y="13.407999992" font-family="Palatino Linotype" font-weight="bold" font-style="normal" font-size="12" fill="#000000">CONTACT</tspan></text></g><g transform="matrix(1,0,0,1,15,179.5)"><text><tspan x="0" y="12.708000183" font-family="Palatino Linotype" font-weight="bold" font-style="normal" font-size="11" fill="#000000">Address</tspan><tspan x="41.540000916" y="12.708000183" font-family="Palatino Linotype" font-weight="normal" font-style="normal" font-size="11" fill="#000000"> : San Francisco CA </tspan><tspan x="0" y="28.708000183" font-family="Palatino Linotype" font-weight="normal" font-style="normal" font-size="11" fill="#000000">94105</tspan></text></g><g transform="matrix(1,0,0,1,15,216.5)"><text><tspan x="0" y="12.708000183" font-family="Palatino Linotype" font-weight="bold" font-style="normal" font-size="11" fill="#000000">Phone</tspan><tspan x="31.770000458" y="12.708000183" font-family="Palatino Linotype" font-weight="normal" font-style="normal" font-size="11" fill="#000000"> : (555) 432-1000</tspan></text></g><g transform="matrix(1,0,0,1,15,237.5)"><text><tspan x="0" y="12.708000183" font-family="Palatino Linotype" font-weight="bold" font-style="normal" font-size="11" fill="#000000">Email</tspan><tspan x="29.271999359" y="12.708000183" font-family="Palatino Linotype" font-weight="normal" font-style="normal" font-size="11" fill="#000000"> : </tspan><tspan x="0" y="28.708000183" font-family="Palatino Linotype" font-weight="normal" font-style="normal" font-size="11" fill="#000000">resumesample@example.com</tspan></text></g><g transform="matrix(1,0,0,1,0,274.5)"><text><tspan x="0" y="33.408000946" font-family="Palatino Linotype" font-weight="bold" font-style="normal" font-size="12" fill="#000000">SKILLS</tspan></text></g><g transform="matrix(1,0,0,1,14.949999809,316.5)"><text><tspan x="-0.5" y="11.958000183" font-family="Symbol" font-weight="normal" font-style="normal" font-size="8.25" fill="#46464e">●</tspan><tspan x="10.050000191" y="12.708000183" font-family="Palatino Linotype" font-weight="normal" font-style="normal" font-size="11" fill="#46464e">Guest services</tspan></text></g><g transform="matrix(1,0,0,1,14.949999809,332.5)"><text><tspan x="-0.5" y="11.958000183" font-family="Symbol" font-weight="normal" font-style="normal" font-size="8.25" fill="#46464e">●</tspan><tspan x="10.050000191" y="12.708000183" font-family="Palatino Linotype" font-weight="normal" font-style="normal" font-size="11" fill="#46464e">Inventory control procedures</tspan></text></g><g transform="matrix(1,0,0,1,14.949999809,348.5)"><text><tspan x="-0.5" y="11.958000183" font-family="Symbol" font-weight="normal" font-style="normal" font-size="8.25" fill="#46464e">●</tspan><tspan x="10.050000191" y="12.708000183" font-family="Palatino Linotype" font-weight="normal" font-style="normal" font-size="11" fill="#46464e">Merchandising expertise</tspan></text></g><g transform="matrix(1,0,0,1,14.949999809,364.5)"><text><tspan x="-0.5" y="11.958000183" font-family="Symbol" font-weight="normal" font-style="normal" font-size="8.25" fill="#46464e">●</tspan><tspan x="10.050000191" y="12.708000183" font-family="Palatino Linotype" font-weight="normal" font-style="normal" font-size="11" fill="#46464e">Loss prevention</tspan></text></g><g transform="matrix(1,0,0,1,14.949999809,380.5)"><text><tspan x="-0.5" y="11.958000183" font-family="Symbol" font-weight="normal" font-style="normal" font-size="8.25" fill="#46464e">●</tspan><tspan x="10.050000191" y="12.708000183" font-family="Palatino Linotype" font-weight="normal" font-style="normal" font-size="11" fill="#46464e">Cash register operations</tspan></text></g><g transform="matrix(1,0,0,1,14.949999809,396.5)"><text><tspan x="-0.5" y="11.958000183" font-family="Symbol" font-weight="normal" font-style="normal" font-size="8.25" fill="#46464e">●</tspan><tspan x="10.050000191" y="12.708000183" font-family="Palatino Linotype" font-weight="normal" font-style="normal" font-size="11" fill="#46464e">Product promotions</tspan></text></g></g><path d="M202,0 L232,0 L232,790 L202,790 Z" fill="#e2e6e8" fill-rule="evenodd"></path><g transform="matrix(1,0,0,1,262,0)" clip-path="url(#clip3)"><g transform="matrix(1,0,0,1,0,157.5)"><text><tspan x="0" y="13.407999992" font-family="Palatino Linotype" font-weight="bold" font-style="normal" font-size="12" fill="#000000">PROFESSIONAL SUMMARY</tspan></text></g><g transform="matrix(1,0,0,1,15,179.5)"><text><tspan x="0" y="12.708000183" font-family="Palatino Linotype" font-weight="normal" font-style="normal" font-size="11" fill="#46464e">Highly motivated Sales Associate with extensive customer </tspan><tspan x="0" y="28.708000183" font-family="Palatino Linotype" font-weight="normal" font-style="normal" font-size="11" fill="#46464e">service and sales experience. Outgoing sales professional with </tspan><tspan x="0" y="44.708000183" font-family="Palatino Linotype" font-weight="normal" font-style="normal" font-size="11" fill="#46464e">track record of driving increased sales, improving buying </tspan><tspan x="0" y="60.708000183" font-family="Palatino Linotype" font-weight="normal" font-style="normal" font-size="11" fill="#46464e">experience and elevating company profile with target market.</tspan></text></g><g transform="matrix(1,0,0,1,0,268.5)"><text><tspan x="0" y="13.407999992" font-family="Palatino Linotype" font-weight="bold" font-style="normal" font-size="12" fill="#000000">WORK HISTORY</tspan></text></g><g transform="matrix(1,0,0,1,15,290.5)"><text><tspan x="0" y="12.597000122" font-family="Palatino Linotype" font-weight="bold" font-style="normal" font-size="12" fill="#000000">Senior Sales Associate, </tspan><tspan x="128.630996704" y="12.597000122" font-family="Palatino Linotype" font-weight="normal" font-style="normal" font-size="12" fill="#000000">03/2015 to Current</tspan></text></g><g transform="matrix(1,0,0,1,15,306.688995361)"><text><tspan x="0" y="12.597000122" font-family="Palatino Linotype" font-weight="bold" font-style="normal" font-size="12" fill="#000000">Bed Bath &amp; Beyond, Inc.</tspan><tspan x="133.770004272" y="12.597000122" font-family="Palatino Linotype" font-weight="normal" font-style="normal" font-size="12" fill="#000000"> - San Francisco, CA</tspan></text></g><g transform="matrix(1,0,0,1,14.949999809,322.877990723)"><text><tspan x="-0.5" y="11.958000183" font-family="Symbol" font-weight="normal" font-style="normal" font-size="8.25" fill="#46464e">●</tspan><tspan x="10.050000191" y="12.708000183" font-family="Palatino Linotype" font-weight="normal" font-style="normal" font-size="11" fill="#46464e">Applied security and loss prevention training toward </tspan><tspan x="10.050000191" y="28.708000183" font-family="Palatino Linotype" font-weight="normal" font-style="normal" font-size="11" fill="#46464e">recognizing risks and reducing store theft</tspan></text></g><g transform="matrix(1,0,0,1,14.949999809,354.877990723)"><text><tspan x="-0.5" y="11.958000183" font-family="Symbol" font-weight="normal" font-style="normal" font-size="8.25" fill="#46464e">●</tspan><tspan x="10.050000191" y="12.708000183" font-family="Palatino Linotype" font-weight="normal" font-style="normal" font-size="11" fill="#46464e">Trained and developed sales team associates in products, </tspan><tspan x="10.050000191" y="28.708000183" font-family="Palatino Linotype" font-weight="normal" font-style="normal" font-size="11" fill="#46464e">selling techniques and procedures</tspan></text></g><g transform="matrix(1,0,0,1,14.949999809,386.877990723)"><text><tspan x="-0.5" y="11.958000183" font-family="Symbol" font-weight="normal" font-style="normal" font-size="8.25" fill="#46464e">●</tspan><tspan x="10.050000191" y="12.708000183" font-family="Palatino Linotype" font-weight="normal" font-style="normal" font-size="11" fill="#46464e">Maintained organized, presentable merchandise to drive </tspan><tspan x="10.050000191" y="28.708000183" font-family="Palatino Linotype" font-weight="normal" font-style="normal" font-size="11" fill="#46464e">continuous sales</tspan></text></g><g transform="matrix(1,0,0,1,14.949999809,418.877990723)"><text><tspan x="-0.5" y="11.958000183" font-family="Symbol" font-weight="normal" font-style="normal" font-size="8.25" fill="#46464e">●</tspan><tspan x="10.050000191" y="12.708000183" font-family="Palatino Linotype" font-weight="normal" font-style="normal" font-size="11" fill="#46464e">Implemented up-selling strategies for recommending </tspan><tspan x="10.050000191" y="28.708000183" font-family="Palatino Linotype" font-weight="normal" font-style="normal" font-size="11" fill="#46464e">accessories and complementary purchases</tspan></text></g><g transform="matrix(1,0,0,1,15,450.877990723)"><text><tspan x="0" y="34.597000122" font-family="Palatino Linotype" font-weight="bold" font-style="normal" font-size="12" fill="#000000">Sales Associate, </tspan><tspan x="89.630996704" y="34.597000122" font-family="Palatino Linotype" font-weight="normal" font-style="normal" font-size="12" fill="#000000">06/2013 to 03/2015</tspan></text></g><g transform="matrix(1,0,0,1,15,489.066986084)"><text><tspan x="0" y="12.597000122" font-family="Palatino Linotype" font-weight="bold" font-style="normal" font-size="12" fill="#000000">Target</tspan><tspan x="35.338001251" y="12.597000122" font-family="Palatino Linotype" font-weight="normal" font-style="normal" font-size="12" fill="#000000"> - San Francisco, CA</tspan></text></g><g transform="matrix(1,0,0,1,14.949999809,505.256011963)"><text><tspan x="-0.5" y="11.958000183" font-family="Symbol" font-weight="normal" font-style="normal" font-size="8.25" fill="#46464e">●</tspan><tspan x="10.050000191" y="12.708000183" font-family="Palatino Linotype" font-weight="normal" font-style="normal" font-size="11" fill="#46464e">Maintained organized, presentable merchandise to drive </tspan><tspan x="10.050000191" y="28.708000183" font-family="Palatino Linotype" font-weight="normal" font-style="normal" font-size="11" fill="#46464e">continuous sales</tspan></text></g><g transform="matrix(1,0,0,1,14.949999809,537.255981445)"><text><tspan x="-0.5" y="11.958000183" font-family="Symbol" font-weight="normal" font-style="normal" font-size="8.25" fill="#46464e">●</tspan><tspan x="10.050000191" y="12.708000183" font-family="Palatino Linotype" font-weight="normal" font-style="normal" font-size="11" fill="#46464e">Organized racks and shelves to maintain store visual </tspan><tspan x="10.050000191" y="28.708000183" font-family="Palatino Linotype" font-weight="normal" font-style="normal" font-size="11" fill="#46464e">appeal, engage customers and promote merchandise</tspan></text></g><g transform="matrix(1,0,0,1,14.949999809,569.255981445)"><text><tspan x="-0.5" y="11.958000183" font-family="Symbol" font-weight="normal" font-style="normal" font-size="8.25" fill="#46464e">●</tspan><tspan x="10.050000191" y="12.708000183" font-family="Palatino Linotype" font-weight="normal" font-style="normal" font-size="11" fill="#46464e">Evaluated inventory and delivery needs, optimizing </tspan><tspan x="10.050000191" y="28.708000183" font-family="Palatino Linotype" font-weight="normal" font-style="normal" font-size="11" fill="#46464e">strategies to meet customer demands</tspan></text></g><g transform="matrix(1,0,0,1,14.949999809,601.255981445)"><text><tspan x="-0.5" y="11.958000183" font-family="Symbol" font-weight="normal" font-style="normal" font-size="8.25" fill="#46464e">●</tspan><tspan x="10.050000191" y="12.708000183" font-family="Palatino Linotype" font-weight="normal" font-style="normal" font-size="11" fill="#46464e">Analyzed and processed returns, assisting customers with </tspan><tspan x="10.050000191" y="28.708000183" font-family="Palatino Linotype" font-weight="normal" font-style="normal" font-size="11" fill="#46464e">finding alternative merchandise to meet needs</tspan></text></g><g transform="matrix(1,0,0,1,0,633.255981445)"><text><tspan x="0" y="22.006999969" font-family="Palatino Linotype" font-weight="normal" font-style="normal" font-size="10" fill="#46464e"> </tspan></text></g><g transform="matrix(1,0,0,1,0,658.255981445)"><text><tspan x="0" y="13.407999992" font-family="Palatino Linotype" font-weight="bold" font-style="normal" font-size="12" fill="#000000">EDUCATION</tspan></text></g><g transform="matrix(1,0,0,1,15,680.255981445)"><text><tspan x="0" y="12.597000122" font-family="Palatino Linotype" font-weight="bold" font-style="normal" font-size="12" fill="#000000">Bachelor of Arts</tspan><tspan x="88.59400177" y="12.597000122" font-family="Palatino Linotype" font-weight="normal" font-style="normal" font-size="12" fill="#000000"> : </tspan><tspan x="97.59400177" y="12.597000122" font-family="Palatino Linotype" font-weight="bold" font-style="normal" font-size="12" fill="#000000">Business Administration</tspan><tspan x="233.800994873" y="12.597000122" font-family="Palatino Linotype" font-weight="normal" font-style="normal" font-size="12" fill="#000000">, 2013</tspan></text></g><g transform="matrix(1,0,0,1,15,696.445007324)"><text><tspan x="0" y="12.597000122" font-family="Palatino Linotype" font-weight="bold" font-style="normal" font-size="12" fill="#000000">San Francisco State University</tspan><tspan x="166.31199646" y="12.597000122" font-family="Palatino Linotype" font-weight="normal" font-style="normal" font-size="12" fill="#000000"> - San Francisco, CA </tspan></text></g><g transform="matrix(1,0,0,1,0,712.633972168)"><text><tspan x="0" y="22.006999969" font-family="Palatino Linotype" font-weight="normal" font-style="normal" font-size="10" fill="#46464e"> </tspan></text></g></g><g transform="matrix(1,0,0,1,0,790)"><text><tspan x="0" y="0.077" font-family="Times New Roman" font-weight="normal" font-style="normal" font-size="1" fill="#ffffff">.</tspan></text></g><path d="M0,0 L612,0 L612,127.5 L0,127.5 Z" stroke-width="0.75" stroke-miterlimit="10" stroke="#000000" stroke-opacity="0" fill="none" fill-rule="evenodd"></path><g transform="matrix(1,0,0,1,0.37500003,0.375)" clip-path="url(#clip4)"><g transform="matrix(1,0,0,1,0,0)" clip-path="url(#clip5)"><path d="M0,0 L611.25,0 L611.25,109.5 L0,109.5 Z" fill="#3c5769" fill-rule="evenodd"></path><text><tspan x="185.589004517" y="71.400001526" font-family="Oswald" font-weight="normal" font-style="normal" font-size="42" fill="#eef0f1">JESSICA CLAIRE</tspan></text></g><g transform="matrix(1,0,0,1,0,109.5)"><g transform="matrix(1,0,0,1,0,0)" clip-path="url(#clip6)"><path d="M0,0 L611.25,0 L611.25,6 L0,6 Z" fill="#3c5769" fill-rule="evenodd"></path></g></g><g transform="matrix(1,0,0,1,0,115.5)"><g transform="matrix(1,0,0,1,0,0)" clip-path="url(#clip7)"><path d="M0,0 L611.25,0 L611.25,10 L0,10 Z" fill="#e2e6e8" fill-rule="evenodd"></path></g></g><path d="M0,111 L611.25,111 " stroke-width="3" stroke-miterlimit="10" stroke="#ffffff" fill="none" fill-rule="evenodd"></path></g></g></g></svg>