<?xml version="1.0" encoding="utf-8" standalone="yes"?><svg xmlns="http://www.w3.org/2000/svg" xmlns:xlink="http://www.w3.org/1999/xlink" version="1.1" width="816" height="1056"><!--Generated by Aspose.Words for .NET 18.5--><defs><clipPath id="clip1"><path d="M-1,-1 L389,-1 L389,639.916015625 L-1,639.916015625 Z" clip-rule="evenodd"></path></clipPath><clipPath id="clip2"><path d="M-1,-1 L225,-1 L225,791 L-1,791 Z" clip-rule="evenodd"></path></clipPath><style type="text/css">@import url('https://fonts.googleapis.com/css?family=Saira:300,400,500,600,900');svg{background:white}</style></defs><g transform="scale(1.33333)"><g><g transform="matrix(1,0,0,1,0,40)"><g transform="matrix(1,0,0,1,0,0)" clip-path="url(#clip1)"><g transform="matrix(1,0,0,1,32,0)"><text><tspan x="0" y="29.600000381" font-family="Palatino Linotype" font-weight="bold" font-style="normal" font-size="37" fill="#2c5a77">JESSICA CLAIRE</tspan></text></g><g transform="matrix(1,0,0,1,32,37)"><text><tspan x="0" y="10.050000191" font-family="Palatino Linotype" font-weight="normal" font-style="normal" font-size="1" fill="#46464e"> </tspan></text></g><path d="M30.549999237,45.5 L365.449981689,45.5 " stroke-width="1" stroke-miterlimit="10" stroke="#2c5a77" fill="none" fill-rule="evenodd"></path><g transform="matrix(1,0,0,1,32,77.348999023)"><text><tspan x="0" y="12.597000122" font-family="Palatino Linotype" font-weight="bold" font-style="normal" font-size="12" fill="#2c5a77">PROFESSIONAL SUMMARY</tspan></text></g><path d="M30.549999237,94.037994385 L365.449981689,94.037994385 " stroke-width="1" stroke-miterlimit="10" stroke="#2c5a77" fill="none" fill-rule="evenodd"></path><g transform="matrix(1,0,0,1,32,104.538002014)"><text><tspan x="0" y="11.708000183" font-family="Palatino Linotype" font-weight="normal" font-style="normal" font-size="11" fill="#46464e">Highly motivated Sales Associate with extensive customer service </tspan><tspan x="0" y="26.708000183" font-family="Palatino Linotype" font-weight="normal" font-style="normal" font-size="11" fill="#46464e">and sales experience. Outgoing sales professional with track record </tspan><tspan x="0" y="41.708000183" font-family="Palatino Linotype" font-weight="normal" font-style="normal" font-size="11" fill="#46464e">of driving increased sales, improving buying experience and </tspan><tspan x="0" y="56.708000183" font-family="Palatino Linotype" font-weight="normal" font-style="normal" font-size="11" fill="#46464e">elevating company profile with target market.</tspan></text></g><g transform="matrix(1,0,0,1,32,164.537994385)"><text><tspan x="0" y="37.597000122" font-family="Palatino Linotype" font-weight="bold" font-style="normal" font-size="12" fill="#2c5a77">WORK HISTORY</tspan></text></g><path d="M30.549999237,206.226989746 L365.449981689,206.226989746 " stroke-width="1" stroke-miterlimit="10" stroke="#2c5a77" fill="none" fill-rule="evenodd"></path><g transform="matrix(1,0,0,1,32,216.727005005)"><text><tspan x="0" y="11.708000183" font-family="Palatino Linotype" font-weight="bold" font-style="normal" font-size="11" fill="#000000">Senior Sales Associate, 03/2015 to Current</tspan></text></g><g transform="matrix(1,0,0,1,32,231.727005005)"><text><tspan x="0" y="11.708000183" font-family="Palatino Linotype" font-weight="bold" font-style="normal" font-size="11" fill="#000000">Bed Bath &amp; Beyond, Inc.</tspan><tspan x="122.621002197" y="11.708000183" font-family="Palatino Linotype" font-weight="normal" font-style="normal" font-size="11" fill="#000000">, San Francisco, CA</tspan></text></g><g transform="matrix(1,0,0,1,31.950000763,246.727005005)"><text><tspan x="-0.5" y="10.958000183" font-family="Symbol" font-weight="normal" font-style="normal" font-size="8.25" fill="#46464e">●</tspan><tspan x="12.050000191" y="11.708000183" font-family="Palatino Linotype" font-weight="normal" font-style="normal" font-size="11" fill="#46464e">Applied security and loss prevention training toward </tspan><tspan x="12.050000191" y="26.708000183" font-family="Palatino Linotype" font-weight="normal" font-style="normal" font-size="11" fill="#46464e">recognizing risks and reducing store theft</tspan></text></g><g transform="matrix(1,0,0,1,31.950000763,276.726989746)"><text><tspan x="-0.5" y="10.958000183" font-family="Symbol" font-weight="normal" font-style="normal" font-size="8.25" fill="#46464e">●</tspan><tspan x="12.050000191" y="11.708000183" font-family="Palatino Linotype" font-weight="normal" font-style="normal" font-size="11" fill="#46464e">Trained and developed sales team associates in products, selling </tspan><tspan x="12.050000191" y="26.708000183" font-family="Palatino Linotype" font-weight="normal" font-style="normal" font-size="11" fill="#46464e">techniques and procedures</tspan></text></g><g transform="matrix(1,0,0,1,31.950000763,306.726989746)"><text><tspan x="-0.5" y="10.958000183" font-family="Symbol" font-weight="normal" font-style="normal" font-size="8.25" fill="#46464e">●</tspan><tspan x="12.050000191" y="11.708000183" font-family="Palatino Linotype" font-weight="normal" font-style="normal" font-size="11" fill="#46464e">Maintained organized, presentable merchandise to drive </tspan><tspan x="12.050000191" y="26.708000183" font-family="Palatino Linotype" font-weight="normal" font-style="normal" font-size="11" fill="#46464e">continuous sales</tspan></text></g><g transform="matrix(1,0,0,1,31.950000763,336.726989746)"><text><tspan x="-0.5" y="10.958000183" font-family="Symbol" font-weight="normal" font-style="normal" font-size="8.25" fill="#46464e">●</tspan><tspan x="12.050000191" y="11.708000183" font-family="Palatino Linotype" font-weight="normal" font-style="normal" font-size="11" fill="#46464e">Implemented up-selling strategies for recommending accessories </tspan><tspan x="12.050000191" y="26.708000183" font-family="Palatino Linotype" font-weight="normal" font-style="normal" font-size="11" fill="#46464e">and complementary purchases</tspan></text></g><g transform="matrix(1,0,0,1,32,366.726989746)"><text><tspan x="0" y="36.708000183" font-family="Palatino Linotype" font-weight="bold" font-style="normal" font-size="11" fill="#000000">Sales Associate, 06/2013 to 03/2015</tspan></text></g><g transform="matrix(1,0,0,1,32,406.726989746)"><text><tspan x="0" y="11.708000183" font-family="Palatino Linotype" font-weight="bold" font-style="normal" font-size="11" fill="#000000">Target</tspan><tspan x="32.393001556" y="11.708000183" font-family="Palatino Linotype" font-weight="normal" font-style="normal" font-size="11" fill="#000000">, San Francisco, CA</tspan></text></g><g transform="matrix(1,0,0,1,31.950000763,421.726989746)"><text><tspan x="-0.5" y="10.958000183" font-family="Symbol" font-weight="normal" font-style="normal" font-size="8.25" fill="#46464e">●</tspan><tspan x="12.050000191" y="11.708000183" font-family="Palatino Linotype" font-weight="normal" font-style="normal" font-size="11" fill="#46464e">Maintained organized, presentable merchandise to drive </tspan><tspan x="12.050000191" y="26.708000183" font-family="Palatino Linotype" font-weight="normal" font-style="normal" font-size="11" fill="#46464e">continuous sales</tspan></text></g><g transform="matrix(1,0,0,1,31.950000763,451.726989746)"><text><tspan x="-0.5" y="10.958000183" font-family="Symbol" font-weight="normal" font-style="normal" font-size="8.25" fill="#46464e">●</tspan><tspan x="12.050000191" y="11.708000183" font-family="Palatino Linotype" font-weight="normal" font-style="normal" font-size="11" fill="#46464e">Organized racks and shelves to maintain store visual appeal, </tspan><tspan x="12.050000191" y="26.708000183" font-family="Palatino Linotype" font-weight="normal" font-style="normal" font-size="11" fill="#46464e">engage customers and promote merchandise</tspan></text></g><g transform="matrix(1,0,0,1,31.950000763,481.726989746)"><text><tspan x="-0.5" y="10.958000183" font-family="Symbol" font-weight="normal" font-style="normal" font-size="8.25" fill="#46464e">●</tspan><tspan x="12.050000191" y="11.708000183" font-family="Palatino Linotype" font-weight="normal" font-style="normal" font-size="11" fill="#46464e">Evaluated inventory and delivery needs, optimizing strategies to </tspan><tspan x="12.050000191" y="26.708000183" font-family="Palatino Linotype" font-weight="normal" font-style="normal" font-size="11" fill="#46464e">meet customer demands</tspan></text></g><g transform="matrix(1,0,0,1,31.950000763,511.726989746)"><text><tspan x="-0.5" y="10.958000183" font-family="Symbol" font-weight="normal" font-style="normal" font-size="8.25" fill="#46464e">●</tspan><tspan x="12.050000191" y="11.708000183" font-family="Palatino Linotype" font-weight="normal" font-style="normal" font-size="11" fill="#46464e">Analyzed and processed returns, assisting customers with </tspan><tspan x="12.050000191" y="26.708000183" font-family="Palatino Linotype" font-weight="normal" font-style="normal" font-size="11" fill="#46464e">finding alternative merchandise to meet needs</tspan></text></g><g transform="matrix(1,0,0,1,32,541.726989746)"><text><tspan x="0" y="37.597000122" font-family="Palatino Linotype" font-weight="bold" font-style="normal" font-size="12" fill="#2c5a77">EDUCATION</tspan></text></g><path d="M30.549999237,583.416015625 L365.449981689,583.416015625 " stroke-width="1" stroke-miterlimit="10" stroke="#2c5a77" fill="none" fill-rule="evenodd"></path><g transform="matrix(1,0,0,1,32,593.916015625)"><text><tspan x="0" y="11.708000183" font-family="Palatino Linotype" font-weight="bold" font-style="normal" font-size="11" fill="#000000">Bachelor of Arts, Business Administration, 2013</tspan></text></g><g transform="matrix(1,0,0,1,32,608.916015625)"><text><tspan x="0" y="11.708000183" font-family="Palatino Linotype" font-weight="bold" font-style="normal" font-size="11" fill="#000000">San Francisco State University</tspan><tspan x="152.45300293" y="11.708000183" font-family="Palatino Linotype" font-weight="normal" font-style="normal" font-size="11" fill="#000000"> - San Francisco, CA</tspan></text></g></g></g><path d="M388,0 L612,0 L612,790 L388,790 Z" fill="#2c5a77" fill-rule="evenodd"></path><g transform="matrix(1,0,0,1,388,0)" clip-path="url(#clip2)"><g transform="matrix(1,0,0,1,25,47)"><text><tspan x="0" y="11.708000183" font-family="Palatino Linotype" font-weight="bold" font-style="normal" font-size="11" fill="#ffffff">Address : </tspan><tspan x="49.790000916" y="11.708000183" font-family="Palatino Linotype" font-weight="normal" font-style="normal" font-size="11" fill="#ffffff">San Francisco, CA 94105</tspan></text></g><g transform="matrix(1,0,0,1,25,67)"><text><tspan x="0" y="11.708000183" font-family="Palatino Linotype" font-weight="bold" font-style="normal" font-size="11" fill="#ffffff">Phone : </tspan><tspan x="40.020000458" y="11.708000183" font-family="Palatino Linotype" font-weight="normal" font-style="normal" font-size="11" fill="#ffffff">(555) 432-1000</tspan></text></g><g transform="matrix(1,0,0,1,25,87)"><text><tspan x="0" y="11.708000183" font-family="Palatino Linotype" font-weight="bold" font-style="normal" font-size="11" fill="#ffffff">Email : </tspan><tspan x="0" y="26.708000183" font-family="Palatino Linotype" font-weight="normal" font-style="normal" font-size="11" fill="#ffffff">resumesample@example.com</tspan></text></g><path d="M-1.450000048,132.5 L200.449996948,132.5 " stroke-width="1" stroke-miterlimit="10" stroke="#ffffff" fill="none" fill-rule="evenodd"></path><g transform="matrix(1,0,0,1,25,133)"><text><tspan x="0" y="21.708000183" font-family="Palatino Linotype" font-weight="normal" font-style="normal" font-size="11" fill="#ffffff"> </tspan></text></g><g transform="matrix(1,0,0,1,25,158)"><text><tspan x="0" y="12.597000122" font-family="Palatino Linotype" font-weight="bold" font-style="normal" font-size="12" fill="#ffffff">SKILLS</tspan></text></g><path d="M-1.450000048,174.688995361 L200.449996948,174.688995361 " stroke-width="1" stroke-miterlimit="10" stroke="#ffffff" fill="none" fill-rule="evenodd"></path><g transform="matrix(1,0,0,1,24.950000763,175.188995361)"><text><tspan x="-0.5" y="20.958000183" font-family="Symbol" font-weight="normal" font-style="normal" font-size="8.25" fill="#ffffff">●</tspan><tspan x="12.050000191" y="21.708000183" font-family="Palatino Linotype" font-weight="normal" font-style="normal" font-size="11" fill="#ffffff">Guest services</tspan></text></g><g transform="matrix(1,0,0,1,24.950000763,200.188995361)"><text><tspan x="-0.5" y="10.958000183" font-family="Symbol" font-weight="normal" font-style="normal" font-size="8.25" fill="#ffffff">●</tspan><tspan x="12.050000191" y="11.708000183" font-family="Palatino Linotype" font-weight="normal" font-style="normal" font-size="11" fill="#ffffff">Inventory control procedures</tspan></text></g><g transform="matrix(1,0,0,1,24.950000763,215.188995361)"><text><tspan x="-0.5" y="10.958000183" font-family="Symbol" font-weight="normal" font-style="normal" font-size="8.25" fill="#ffffff">●</tspan><tspan x="12.050000191" y="11.708000183" font-family="Palatino Linotype" font-weight="normal" font-style="normal" font-size="11" fill="#ffffff">Merchandising expertise</tspan></text></g><g transform="matrix(1,0,0,1,24.950000763,230.188995361)"><text><tspan x="-0.5" y="10.958000183" font-family="Symbol" font-weight="normal" font-style="normal" font-size="8.25" fill="#ffffff">●</tspan><tspan x="12.050000191" y="11.708000183" font-family="Palatino Linotype" font-weight="normal" font-style="normal" font-size="11" fill="#ffffff">Loss prevention</tspan></text></g><g transform="matrix(1,0,0,1,24.950000763,245.188995361)"><text><tspan x="-0.5" y="10.958000183" font-family="Symbol" font-weight="normal" font-style="normal" font-size="8.25" fill="#ffffff">●</tspan><tspan x="12.050000191" y="11.708000183" font-family="Palatino Linotype" font-weight="normal" font-style="normal" font-size="11" fill="#ffffff">Cash register operations</tspan></text></g><g transform="matrix(1,0,0,1,24.950000763,260.188995361)"><text><tspan x="-0.5" y="10.958000183" font-family="Symbol" font-weight="normal" font-style="normal" font-size="8.25" fill="#ffffff">●</tspan><tspan x="12.050000191" y="11.708000183" font-family="Palatino Linotype" font-weight="normal" font-style="normal" font-size="11" fill="#ffffff">Product promotions</tspan></text></g></g><g transform="matrix(1,0,0,1,0,790)"><text><tspan x="0" y="0.077" font-family="Times New Roman" font-weight="normal" font-style="normal" font-size="1" fill="#ffffff">.</tspan></text></g></g></g></svg>