<?xml version="1.0" encoding="utf-8" standalone="yes"?><svg xmlns="http://www.w3.org/2000/svg" xmlns:xlink="http://www.w3.org/1999/xlink" version="1.1" width="816" height="1056"><!--Generated by Aspose.Words for .NET 18.5--><defs><clipPath id="clip1"><path d="M0,0 L612,0 L612,0.096000001 L0,0.096000001 Z" clip-rule="evenodd"></path></clipPath><clipPath id="clip10"><path d="M0,0 L4.491142273,0 L4.491142273,4.484449387 L0,4.484449387 Z" clip-rule="evenodd"></path></clipPath><clipPath id="clip11"><path d="M0,0 L1000,0 L1000,1000 L0,1000 Z" clip-rule="evenodd"></path></clipPath><clipPath id="clip12"><path d="M-1,-1 L134,-1 L134,77 L-1,77 Z" clip-rule="evenodd"></path></clipPath><clipPath id="clip13"><path d="M-1,-1 L440,-1 L440,77 L-1,77 Z" clip-rule="evenodd"></path></clipPath><clipPath id="clip14"><path d="M-1,-1 L134,-1 L134,80.5 L-1,80.5 Z" clip-rule="evenodd"></path></clipPath><clipPath id="clip15"><path d="M-1,-1 L219.5,-1 L219.5,55.5 L-1,55.5 Z" clip-rule="evenodd"></path></clipPath><clipPath id="clip16"><path d="M-1,-1 L219.5,-1 L219.5,55.5 L-1,55.5 Z" clip-rule="evenodd"></path></clipPath><clipPath id="clip17"><path d="M-1,-1 L440,-1 L440,80.5 L-1,80.5 Z" clip-rule="evenodd"></path></clipPath><clipPath id="clip18"><path d="M-1,-1 L134,-1 L134,358 L-1,358 Z" clip-rule="evenodd"></path></clipPath><clipPath id="clip19"><path d="M-1,-1 L440,-1 L440,358 L-1,358 Z" clip-rule="evenodd"></path></clipPath><clipPath id="clip2"><path d="M0,0 L612,0 L612,0.096000001 L0,0.096000001 Z" clip-rule="evenodd"></path></clipPath><clipPath id="clip20"><path d="M-1,-1 L134,-1 L134,60 L-1,60 Z" clip-rule="evenodd"></path></clipPath><clipPath id="clip21"><path d="M-1,-1 L440,-1 L440,60 L-1,60 Z" clip-rule="evenodd"></path></clipPath><clipPath id="clip3"><path d="M-1,0 L612.299987793,0 L612.299987793,123.839996338 L-1,123.839996338 Z" clip-rule="evenodd"></path></clipPath><clipPath id="clip4"><path d="M0,0 L4.491142273,0 L4.491142273,4.484449387 L0,4.484449387 Z" clip-rule="evenodd"></path></clipPath><clipPath id="clip5"><path d="M0,0 L1000,0 L1000,1000 L0,1000 Z" clip-rule="evenodd"></path></clipPath><clipPath id="clip6"><path d="M0,0 L4.491142273,0 L4.491142273,4.484449387 L0,4.484449387 Z" clip-rule="evenodd"></path></clipPath><clipPath id="clip7"><path d="M0,0 L1000,0 L1000,1000 L0,1000 Z" clip-rule="evenodd"></path></clipPath><clipPath id="clip8"><path d="M0,0 L4.491142273,0 L4.491142273,4.484449387 L0,4.484449387 Z" clip-rule="evenodd"></path></clipPath><clipPath id="clip9"><path d="M0,0 L1000,0 L1000,1000 L0,1000 Z" clip-rule="evenodd"></path></clipPath><style type="text/css">svg{background:white}*{white-space:pre}</style></defs><g transform="scale(1.33333)"><g><path d="M0,0 L600,0 L600,450 L0,450 Z" fill="#ffffff" fill-rule="evenodd"></path><g transform="matrix(1,0,0,1,600,0)"><path d="M0,0 L600,0 L600,450 L0,450 Z" fill="#ffffff" fill-rule="evenodd"></path></g><g transform="matrix(1,0,0,1,0,450)"><path d="M0,0 L600,0 L600,450 L0,450 Z" fill="#ffffff" fill-rule="evenodd"></path></g><g transform="matrix(1,0,0,1,600,450)"><path d="M0,0 L600,0 L600,450 L0,450 Z" fill="#ffffff" fill-rule="evenodd"></path></g><g transform="matrix(1,0,0,1,0,0)" clip-path="url(#clip1)"><text><tspan x="0" y="0.077" font-family="Times New Roman" font-weight="normal" font-style="normal" font-size="1" fill="#ffffff">.</tspan></text></g><g transform="matrix(1,0,0,1,0,791.903991699)" clip-path="url(#clip2)"><text><tspan x="0" y="0.077" font-family="Times New Roman" font-weight="normal" font-style="normal" font-size="1" fill="#ffffff">.</tspan></text></g><g transform="matrix(1,0,0,1,0,0.096000001)"><g transform="matrix(1,0,0,1,6.5,0)"><path d="M0.5,1 L1,1 L1,122.839996338 L0.5,122.839996338 Z" fill="#009bcc" fill-rule="evenodd"></path><path d="M1,1 L612.299987793,1 L612.299987793,122.839996338 L1,122.839996338 Z" fill="#009bcc" fill-rule="evenodd"></path><g transform="matrix(1,0,0,1,1,0)" clip-path="url(#clip3)"><g transform="matrix(1,0,0,1,7,43)"><text><tspan x="131.145996094" y="36" font-family="Palatino Linotype" font-weight="bold" font-style="normal" font-size="41" fill="#ffffff">JESSICA CLAIRE</tspan></text></g><g transform="matrix(1,0,0,1,7,88)"><text><tspan x="81.935997009" y="26.548000336" font-family="Palatino Linotype" font-weight="normal" font-style="normal" font-size="11" fill="#ffffff">   </tspan></text><g transform="matrix(1,0,0,1,90.185997009,22.063999176)"><g clip-path="url(#clip4)"><g transform="matrix(0.004491142,0,0,0.00448445,0,0)" clip-path="url(#clip5)"><g><path d="M0,0 L1000,0 L1000,1000 L0,1000 Z" transform="matrix(1,0,0,1,0,0)" fill="#ffffff" fill-rule="evenodd"></path><path d="M0,0 L1000,0 L1000,0 L1000,1000 L1000,1000 L0,1000 Z" transform="matrix(1,0,0,1,0,0)" fill="#2a5978" fill-rule="evenodd"></path></g></g></g></g><text><tspan x="94.677001953" y="26.548000336" font-family="Palatino Linotype" font-weight="normal" font-style="normal" font-size="11" fill="#ffffff">    San Francisco, CA, 94105    </tspan></text><g transform="matrix(1,0,0,1,237.955993652,22.063999176)"><g clip-path="url(#clip6)"><g transform="matrix(0.004491142,0,0,0.00448445,0,0)" clip-path="url(#clip7)"><g><path d="M0,0 L1000,0 L1000,1000 L0,1000 Z" transform="matrix(1,0,0,1,0,0)" fill="#ffffff" fill-rule="evenodd"></path><path d="M0,0 L1000,0 L1000,0 L1000,1000 L1000,1000 L0,1000 Z" transform="matrix(1,0,0,1,0,0)" fill="#2a5978" fill-rule="evenodd"></path></g></g></g></g><text><tspan x="242.447006226" y="26.548000336" font-family="Palatino Linotype" font-weight="normal" font-style="normal" font-size="11" fill="#ffffff">    (555) 432-1000    </tspan></text><g transform="matrix(1,0,0,1,333.186004639,22.063999176)"><g clip-path="url(#clip8)"><g transform="matrix(0.004491142,0,0,0.00448445,0,0)" clip-path="url(#clip9)"><g><path d="M0,0 L1000,0 L1000,1000 L0,1000 Z" transform="matrix(1,0,0,1,0,0)" fill="#ffffff" fill-rule="evenodd"></path><path d="M0,0 L1000,0 L1000,0 L1000,1000 L1000,1000 L0,1000 Z" transform="matrix(1,0,0,1,0,0)" fill="#2a5978" fill-rule="evenodd"></path></g></g></g></g><text><tspan x="337.677001953" y="26.548000336" font-family="Palatino Linotype" font-weight="normal" font-style="normal" font-size="11" fill="#ffffff">    resumesample@example.com    </tspan></text><g transform="matrix(1,0,0,1,502.62298584,22.063999176)"><g clip-path="url(#clip10)"><g transform="matrix(0.004491142,0,0,0.00448445,0,0)" clip-path="url(#clip11)"><g><path d="M0,0 L1000,0 L1000,1000 L0,1000 Z" transform="matrix(1,0,0,1,0,0)" fill="#ffffff" fill-rule="evenodd"></path><path d="M0,0 L1000,0 L1000,0 L1000,1000 L1000,1000 L0,1000 Z" transform="matrix(1,0,0,1,0,0)" fill="#2a5978" fill-rule="evenodd"></path></g></g></g></g><text><tspan x="507.114013672" y="26.548000336" font-family="Palatino Linotype" font-weight="normal" font-style="normal" font-size="11" fill="#ffffff">    </tspan></text></g></g><path d="M0,1 L0,122.839996338 " stroke-width="1" stroke-miterlimit="10" stroke="#009bcc" fill="none" fill-rule="evenodd"></path><path d="M612.799987793,1 L612.799987793,122.839996338 " stroke-width="1" stroke-miterlimit="10" stroke="#009bcc" fill="none" fill-rule="evenodd"></path><path d="M-0.5,0.5 L613.299987793,0.5 " stroke-width="1" stroke-miterlimit="10" stroke="#009bcc" fill="none" fill-rule="evenodd"></path><path d="M-0.5,123.339996338 L613.299987793,123.339996338 " stroke-width="1" stroke-miterlimit="10" stroke="#009bcc" fill="none" fill-rule="evenodd"></path></g></g><g transform="matrix(1,0,0,1,20,123.935997009)"><text><tspan x="0" y="1.049999952" font-family="Palatino Linotype" font-weight="normal" font-style="normal" font-size="1" fill="#020303"> </tspan></text><g transform="matrix(1,0,0,1,2,26.349000931)"><g transform="matrix(1,0,0,1,0,0)" clip-path="url(#clip12)"><g transform="matrix(1,0,0,1,2,0)"><text><tspan x="0" y="12.597000122" font-family="Palatino Linotype" font-weight="bold" font-style="normal" font-size="12" fill="#009bcc">PROFESSIONAL </tspan><tspan x="0" y="28.785999298" font-family="Palatino Linotype" font-weight="bold" font-style="normal" font-size="12" fill="#009bcc">SUMMARY</tspan></text></g></g><g transform="matrix(1,0,0,1,133,0)" clip-path="url(#clip13)"><g transform="matrix(1,0,0,1,2,0)"><text><tspan x="0" y="13.708000183" font-family="Palatino Linotype" font-weight="normal" font-style="normal" font-size="11" fill="#020303">Highly motivated Sales Associate with extensive customer service and sales experience. </tspan><tspan x="0" y="30.708000183" font-family="Palatino Linotype" font-weight="normal" font-style="normal" font-size="11" fill="#020303">Outgoing sales professional with track record of driving increased sales, improving </tspan><tspan x="0" y="47.708000183" font-family="Palatino Linotype" font-weight="normal" font-style="normal" font-size="11" fill="#020303">buying experience and elevating company profile with target market.</tspan></text></g><g transform="matrix(1,0,0,1,2,51)"><text><tspan x="0" y="21.708000183" font-family="Palatino Linotype" font-weight="bold" font-style="normal" font-size="11" fill="#020303"> </tspan></text></g></g></g><g transform="matrix(1,0,0,1,0,102.348999023)"><text><tspan x="0" y="3.049999952" font-family="Palatino Linotype" font-weight="normal" font-style="normal" font-size="1" fill="#020303"> </tspan></text></g><path d="M-1.450000048,103.348999023 L573.450012207,103.348999023 " stroke-width="2" stroke-miterlimit="10" stroke="#009bcc" fill="none" fill-rule="evenodd"></path><g transform="matrix(1,0,0,1,2,110.697998047)"><g transform="matrix(1,0,0,1,0,0)" clip-path="url(#clip14)"><g transform="matrix(1,0,0,1,2,0)"><text><tspan x="0" y="12.597000122" font-family="Palatino Linotype" font-weight="bold" font-style="normal" font-size="12" fill="#009bcc">SKILLS</tspan></text></g></g></g><g transform="matrix(1,0,0,1,137,110.697998047)"><g transform="matrix(1,0,0,1,0,0)" clip-path="url(#clip15)"><g transform="matrix(1,0,0,1,4.199999809,0.25)"><text><tspan x="-0.5" y="12.958000183" font-family="Symbol" font-weight="normal" font-style="normal" font-size="8.25" fill="#020303">●</tspan><tspan x="12.050000191" y="13.708000183" font-family="Palatino Linotype" font-weight="normal" font-style="normal" font-size="11" fill="#020303">Guest services</tspan></text></g><g transform="matrix(1,0,0,1,4.199999809,17.25)"><text><tspan x="-0.5" y="12.958000183" font-family="Symbol" font-weight="normal" font-style="normal" font-size="8.25" fill="#020303">●</tspan><tspan x="12.050000191" y="13.708000183" font-family="Palatino Linotype" font-weight="normal" font-style="normal" font-size="11" fill="#020303">Inventory control procedures</tspan></text></g><g transform="matrix(1,0,0,1,4.199999809,34.25)"><text><tspan x="-0.5" y="12.958000183" font-family="Symbol" font-weight="normal" font-style="normal" font-size="8.25" fill="#020303">●</tspan><tspan x="12.050000191" y="13.708000183" font-family="Palatino Linotype" font-weight="normal" font-style="normal" font-size="11" fill="#020303">Merchandising expertise</tspan></text></g></g><g transform="matrix(1,0,0,1,218.5,0)" clip-path="url(#clip16)"><g transform="matrix(1,0,0,1,4.199999809,0.25)"><text><tspan x="-0.5" y="12.958000183" font-family="Symbol" font-weight="normal" font-style="normal" font-size="8.25" fill="#020303">●</tspan><tspan x="12.050000191" y="13.708000183" font-family="Palatino Linotype" font-weight="normal" font-style="normal" font-size="11" fill="#020303">Loss prevention</tspan></text></g><g transform="matrix(1,0,0,1,4.199999809,17.25)"><text><tspan x="-0.5" y="12.958000183" font-family="Symbol" font-weight="normal" font-style="normal" font-size="8.25" fill="#020303">●</tspan><tspan x="12.050000191" y="13.708000183" font-family="Palatino Linotype" font-weight="normal" font-style="normal" font-size="11" fill="#020303">Cash register operations</tspan></text></g><g transform="matrix(1,0,0,1,4.199999809,34.25)"><text><tspan x="-0.5" y="12.958000183" font-family="Symbol" font-weight="normal" font-style="normal" font-size="8.25" fill="#020303">●</tspan><tspan x="12.050000191" y="13.708000183" font-family="Palatino Linotype" font-weight="normal" font-style="normal" font-size="11" fill="#020303">Product promotions</tspan></text></g></g></g><g transform="matrix(1,0,0,1,2,110.697998047)"><g transform="matrix(1,0,0,1,133,0)" clip-path="url(#clip17)"><g transform="matrix(1,0,0,1,2,54.5)"><text><tspan x="0" y="21.708000183" font-family="Palatino Linotype" font-weight="bold" font-style="normal" font-size="11" fill="#020303"> </tspan></text></g></g></g><g transform="matrix(1,0,0,1,0,190.197998047)"><text><tspan x="0" y="3.049999952" font-family="Palatino Linotype" font-weight="normal" font-style="normal" font-size="1" fill="#020303"> </tspan></text></g><path d="M-1.450000048,191.197998047 L573.450012207,191.197998047 " stroke-width="2" stroke-miterlimit="10" stroke="#009bcc" fill="none" fill-rule="evenodd"></path><g transform="matrix(1,0,0,1,2,198.54699707)"><g transform="matrix(1,0,0,1,0,0)" clip-path="url(#clip18)"><g transform="matrix(1,0,0,1,2,0)"><text><tspan x="0" y="12.597000122" font-family="Palatino Linotype" font-weight="bold" font-style="normal" font-size="12" fill="#009bcc">WORK HISTORY</tspan></text></g></g><g transform="matrix(1,0,0,1,133,0)" clip-path="url(#clip19)"><g transform="matrix(1,0,0,1,2,0)"><text><tspan x="0" y="13.708000183" font-family="Palatino Linotype" font-weight="bold" font-style="normal" font-size="11" fill="#020303">SENIOR SALES ASSOCIATE</tspan><tspan x="150.610992432" y="13.708000183" font-family="Palatino Linotype" font-weight="normal" font-style="normal" font-size="11" fill="#020303"> 03/2015 to Current</tspan></text></g><g transform="matrix(1,0,0,1,2,17)"><text><tspan x="0" y="13.708000183" font-family="Palatino Linotype" font-weight="normal" font-style="normal" font-size="11" fill="#020303">Bed Bath &amp; Beyond, Inc., San Francisco, CA</tspan></text></g><g transform="matrix(1,0,0,1,5.949999809,34)"><text><tspan x="-0.5" y="12.958000183" font-family="Symbol" font-weight="normal" font-style="normal" font-size="8.25" fill="#020303">●</tspan><tspan x="12.050000191" y="13.708000183" font-family="Palatino Linotype" font-weight="normal" font-style="normal" font-size="11" fill="#020303">Applied security and loss prevention training toward recognizing risks and reducing </tspan><tspan x="12.050000191" y="30.708000183" font-family="Palatino Linotype" font-weight="normal" font-style="normal" font-size="11" fill="#020303">store theft</tspan></text></g><g transform="matrix(1,0,0,1,5.949999809,68)"><text><tspan x="-0.5" y="12.958000183" font-family="Symbol" font-weight="normal" font-style="normal" font-size="8.25" fill="#020303">●</tspan><tspan x="12.050000191" y="13.708000183" font-family="Palatino Linotype" font-weight="normal" font-style="normal" font-size="11" fill="#020303">Trained and developed sales team associates in products, selling techniques and </tspan><tspan x="12.050000191" y="30.708000183" font-family="Palatino Linotype" font-weight="normal" font-style="normal" font-size="11" fill="#020303">procedures</tspan></text></g><g transform="matrix(1,0,0,1,5.949999809,102)"><text><tspan x="-0.5" y="12.958000183" font-family="Symbol" font-weight="normal" font-style="normal" font-size="8.25" fill="#020303">●</tspan><tspan x="12.050000191" y="13.708000183" font-family="Palatino Linotype" font-weight="normal" font-style="normal" font-size="11" fill="#020303">Maintained organized, presentable merchandise to drive continuous sales</tspan></text></g><g transform="matrix(1,0,0,1,5.949999809,119)"><text><tspan x="-0.5" y="12.958000183" font-family="Symbol" font-weight="normal" font-style="normal" font-size="8.25" fill="#020303">●</tspan><tspan x="12.050000191" y="13.708000183" font-family="Palatino Linotype" font-weight="normal" font-style="normal" font-size="11" fill="#020303">Implemented up-selling strategies for recommending accessories and complementary </tspan><tspan x="12.050000191" y="30.708000183" font-family="Palatino Linotype" font-weight="normal" font-style="normal" font-size="11" fill="#020303">purchases</tspan></text></g><g transform="matrix(1,0,0,1,2,156)"><text><tspan x="0" y="33.708000183" font-family="Palatino Linotype" font-weight="bold" font-style="normal" font-size="11" fill="#020303">SALES ASSOCIATE</tspan><tspan x="104.016998291" y="33.708000183" font-family="Palatino Linotype" font-weight="normal" font-style="normal" font-size="11" fill="#020303"> 06/2013 to 03/2015</tspan></text></g><g transform="matrix(1,0,0,1,2,193)"><text><tspan x="0" y="13.708000183" font-family="Palatino Linotype" font-weight="normal" font-style="normal" font-size="11" fill="#020303">Target, San Francisco, CA</tspan></text></g><g transform="matrix(1,0,0,1,5.949999809,210)"><text><tspan x="-0.5" y="12.958000183" font-family="Symbol" font-weight="normal" font-style="normal" font-size="8.25" fill="#020303">●</tspan><tspan x="12.050000191" y="13.708000183" font-family="Palatino Linotype" font-weight="normal" font-style="normal" font-size="11" fill="#020303">Maintained organized, presentable merchandise to drive continuous sales</tspan></text></g><g transform="matrix(1,0,0,1,5.949999809,227)"><text><tspan x="-0.5" y="12.958000183" font-family="Symbol" font-weight="normal" font-style="normal" font-size="8.25" fill="#020303">●</tspan><tspan x="12.050000191" y="13.708000183" font-family="Palatino Linotype" font-weight="normal" font-style="normal" font-size="11" fill="#020303">Organized racks and shelves to maintain store visual appeal, engage customers and </tspan><tspan x="12.050000191" y="30.708000183" font-family="Palatino Linotype" font-weight="normal" font-style="normal" font-size="11" fill="#020303">promote merchandise</tspan></text></g><g transform="matrix(1,0,0,1,5.949999809,261)"><text><tspan x="-0.5" y="12.958000183" font-family="Symbol" font-weight="normal" font-style="normal" font-size="8.25" fill="#020303">●</tspan><tspan x="12.050000191" y="13.708000183" font-family="Palatino Linotype" font-weight="normal" font-style="normal" font-size="11" fill="#020303">Evaluated inventory and delivery needs, optimizing strategies to meet customer </tspan><tspan x="12.050000191" y="30.708000183" font-family="Palatino Linotype" font-weight="normal" font-style="normal" font-size="11" fill="#020303">demands</tspan></text></g><g transform="matrix(1,0,0,1,5.949999809,295)"><text><tspan x="-0.5" y="12.958000183" font-family="Symbol" font-weight="normal" font-style="normal" font-size="8.25" fill="#020303">●</tspan><tspan x="12.050000191" y="13.708000183" font-family="Palatino Linotype" font-weight="normal" font-style="normal" font-size="11" fill="#020303">Analyzed and processed returns, assisting customers with finding alternative </tspan><tspan x="12.050000191" y="30.708000183" font-family="Palatino Linotype" font-weight="normal" font-style="normal" font-size="11" fill="#020303">merchandise to meet needs</tspan></text></g><g transform="matrix(1,0,0,1,2,332)"><text><tspan x="0" y="21.708000183" font-family="Palatino Linotype" font-weight="bold" font-style="normal" font-size="11" fill="#020303"> </tspan></text></g></g></g><g transform="matrix(1,0,0,1,0,555.54699707)"><text><tspan x="0" y="3.049999952" font-family="Palatino Linotype" font-weight="normal" font-style="normal" font-size="1" fill="#020303"> </tspan></text></g><path d="M-1.450000048,556.54699707 L573.450012207,556.54699707 " stroke-width="2" stroke-miterlimit="10" stroke="#009bcc" fill="none" fill-rule="evenodd"></path><g transform="matrix(1,0,0,1,2,563.895996094)"><g transform="matrix(1,0,0,1,0,0)" clip-path="url(#clip20)"><g transform="matrix(1,0,0,1,2,0)"><text><tspan x="0" y="12.597000122" font-family="Palatino Linotype" font-weight="bold" font-style="normal" font-size="12" fill="#009bcc">EDUCATION</tspan></text></g></g><g transform="matrix(1,0,0,1,133,0)" clip-path="url(#clip21)"><g transform="matrix(1,0,0,1,2,0)"><text><tspan x="0" y="13.708000183" font-family="Palatino Linotype" font-weight="normal" font-style="normal" font-size="11" fill="#020303">Bachelor of Arts : Business Administration, 2013</tspan></text></g><g transform="matrix(1,0,0,1,2,17)"><text><tspan x="0" y="13.708000183" font-family="Palatino Linotype" font-weight="bold" font-style="normal" font-size="11" fill="#020303">San Francisco State University</tspan><tspan x="152.45300293" y="13.708000183" font-family="Palatino Linotype" font-weight="normal" font-style="normal" font-size="11" fill="#020303"> - San Francisco, CA</tspan></text></g><g transform="matrix(1,0,0,1,2,34)"><text><tspan x="0" y="21.708000183" font-family="Palatino Linotype" font-weight="bold" font-style="normal" font-size="11" fill="#020303"> </tspan></text></g></g></g><g transform="matrix(1,0,0,1,0,622.895996094)"><text><tspan x="0" y="0.077" font-family="Times New Roman" font-weight="normal" font-style="normal" font-size="1" fill="#ffffff">.</tspan></text></g></g></g></g></svg>